# xmcd
#
# Track frame offsets: 
#        150
#        16590
#        36080
#        54538
#        73844
#        98337
#        116138
#        131305
#        147740
#        166690
#        186293
#        200565
#        219253
#
# Disc length: 3139 seconds
#
# Revision: 1
# Processed by: cddbd v1.5.2PL0 Copyright (c) Steve Scherf et al.
# Submitted via: ExactAudioCopyFreeDBPlugin 1.0
#
DISCID=b30c410d
DTITLE=Alan Jackson - How Great Thou Art
DYEAR=2011
DGENRE=Country
TTITLE0=Peace in the Valley
TTITLE1=Amazing Grace
TTITLE2=Bledded Assurance
TTITLE3=Give Me Jesus
TTITLE4=Rock Of Ages
TTITLE5=His Hand In Mine
TTITLE6=Just a Closer Walk With Thee
TTITLE7=How Great Thou Art
TTITLE8=Farther Along
TTITLE9=Were You There?
TTITLE10=Precious Lord, Take My Hand
TTITLE11=What a Friend We Have in Jesus
TTITLE12=The Old Rugged Cross
EXTD=
EXTT0=
EXTT1=
EXTT2=
EXTT3=
EXTT4=
EXTT5=
EXTT6=
EXTT7=
EXTT8=
EXTT9=
EXTT10=
EXTT11=
EXTT12=
PLAYORDER=
